<svg width="144" height="126" viewBox="0 0 144 126" fill="none" xmlns="http://www.w3.org/2000/svg">
<g clip-path="url(#clip0)">
<path opacity="0.5" d="M0.0884253 118.878C-2.07861 83.3183 32.2986 111.756 72.0343 111.756C111.77 111.756 144.591 101 143.99 118.878C143.862 122.758 111.78 126 72.0441 126C32.3084 126 0.324829 122.66 0.0884253 118.878Z" fill="#817EE1"/>
</g>
<g clip-path="url(#clip1)">
<path d="M68.9656 119.972H99.7242C108.724 119.972 116 112.741 116 103.796V26.2758C116 17.3312 108.724 10.1001 99.7242 10.1001H68.9656C59.9656 10.1001 52.6897 17.3312 52.6897 26.2758V103.796C52.6897 112.741 59.9656 119.972 68.9656 119.972Z" fill="#5465AD"/>
<path d="M73.1035 15.9604H95.5518C95.9656 15.9604 96.276 15.6177 96.276 15.2407C96.276 14.8294 95.9311 14.521 95.5518 14.521H73.1035C72.6897 14.521 72.3794 14.8637 72.3794 15.2407C72.3794 15.6519 72.6897 15.9604 73.1035 15.9604Z" fill="#2E3191"/>
<path d="M99.9312 15.1722C99.9312 15.5834 100.276 15.9261 100.69 15.9261C101.104 15.9261 101.448 15.5834 101.448 15.1722C101.448 14.7609 101.104 14.4182 100.69 14.4182C100.242 14.4525 99.9312 14.7609 99.9312 15.1722Z" fill="white"/>
<path d="M81.4829 114.9C81.4829 116.922 83.0691 118.567 85.0001 118.567C86.9312 118.567 88.5174 116.922 88.5174 114.9C88.5174 112.878 86.9312 111.233 85.0001 111.233C83.0346 111.267 81.4829 112.878 81.4829 114.9Z" fill="#2E3191"/>
<path d="M109.655 18.9077H59V108.251H109.655V18.9077Z" fill="#DBCCAE"/>
<path d="M75.2759 24.768C75 34.0896 68.2414 39.2645 64.2069 35.3234C62.3103 33.4727 60.4483 33.3357 59 33.7469V18.9077H74.9655C75.2069 20.6555 75.3448 22.6432 75.2759 24.768Z" fill="#ABD57C"/>
<path d="M59.0345 40.5667V37.7908H109.655V40.5667H102.793V82.651H109.655V85.8725H102.793H100.586H92.1724V108.217H88.4138V85.8725H59V82.651H79.1034V65.0702H59V62.5342H93.4828V40.5667H59.0345ZM82.2414 65.0702V82.651H100.586V40.5667H96.1724V62.5342V65.0702H93.5172H82.2414Z" fill="#87837A"/>
<path opacity="0.5" d="M90.207 73.5008C90.207 73.912 91.7932 74.2205 93.7243 74.2205C95.6553 74.2205 97.2415 73.8777 97.2415 73.4665C97.2415 73.0553 95.6553 72.7468 93.7243 72.7468C91.7932 72.7811 90.207 73.0895 90.207 73.5008Z" fill="#4D4D4D"/>
<path d="M93.4483 54.8233C97.1035 54.8576 100.035 57.9762 99.9656 61.7802C99.9311 64.4876 96 70.862 94 73.3637H93.1725C93.1725 73.3637 86.6552 65.4815 86.7242 61.6774C86.7931 57.8734 89.7931 54.789 93.4483 54.8233ZM93.3449 63.0825C94.4138 63.0825 95.3104 62.1915 95.3449 61.0605C95.3794 59.9296 94.4828 59.0043 93.4138 59.0043C92.3449 59.0043 91.4483 59.8953 91.4138 61.0263C91.3794 62.1572 92.2414 63.0825 93.3449 63.0825Z" fill="#D60C49"/>
<path d="M94.3104 54.8576C97.9656 54.8919 100.897 58.0105 100.828 61.8145C100.759 65.6186 94.0345 73.398 94.0345 73.398C94.0345 73.398 87.5173 65.5158 87.5862 61.7117C87.6207 57.8734 90.6552 54.8233 94.3104 54.8576ZM94.1724 63.0825C95.2414 63.0825 96.138 62.1915 96.1724 61.0606C96.2069 59.9296 95.3104 59.0043 94.2414 59.0043C93.1724 59.0043 92.2759 59.8954 92.2414 61.0263C92.2414 62.1572 93.1035 63.0825 94.1724 63.0825Z" fill="#F20C49"/>
<path d="M40.2413 116.785C40.2413 116.785 33.724 117.539 30.0344 116.373C26.3447 115.208 13.9654 106.846 15.5171 99.1696C16.6206 93.652 22.1723 86.0439 19.9654 83.8506C17.8964 81.7943 10.5861 82.4797 15.2758 71.1704C15.8964 69.6625 16.0689 68.0175 15.7585 66.4068C15.1723 63.391 15.0689 58.5931 20.724 59.6897C28.862 61.2319 26.6206 66.304 31.9999 65.9613C37.3792 65.6186 36.1723 68.4973 37.6206 71.1019C39.0689 73.7064 44.5516 79.1555 42.1378 83.782C39.724 88.4086 41.5861 87.7232 46.9999 93.3435C52.4137 98.9639 55.724 104.927 52.1033 111.678C48.5171 118.43 40.2413 116.785 40.2413 116.785Z" fill="#362E95"/>
<path d="M40.5862 116.785C40.6207 111.541 39.7242 106.092 38.3793 100.883C39.069 97.833 40.1725 95.5369 41.7242 93.8576C41.8621 93.7205 41.8621 93.5149 41.6897 93.3778C41.5518 93.2407 41.3449 93.2407 41.2069 93.4121C39.7587 94.9543 38.7242 96.9762 38 99.5465C37 95.9481 35.8276 92.5211 34.6207 89.4367C34.6207 89.4024 34.6207 89.4024 34.6552 89.3682C35.3449 86.3181 36.4483 84.0219 38 82.3427C38.138 82.2056 38.138 82 37.9656 81.8629C37.8276 81.7258 37.6207 81.7258 37.4828 81.8972C36 83.5079 34.8966 85.6327 34.1725 88.34C33.6897 87.1406 33.2069 85.9754 32.7242 84.8787C32.069 83.3365 31.3793 81.8629 30.7242 80.4921C30.9656 78.6757 31.5518 77.442 32.5173 76.7566C32.6552 76.6537 32.6897 76.4138 32.5862 76.2768C32.4828 76.1397 32.2414 76.1054 32.1035 76.2082C31.1724 76.8936 30.5518 77.956 30.2069 79.4297C27.2414 73.3638 24.7931 69.3884 24.7587 69.3198C24.6552 69.1485 24.4483 69.1142 24.2759 69.217C24.1035 69.3198 24.069 69.5254 24.1724 69.6968C24.2069 69.7653 27.8966 75.6599 31.6207 84.0905C28.8276 82.3769 28.1035 82.2399 26.138 82.2056C25.9311 82.2056 25.7931 82.3427 25.7931 82.5483C25.7931 82.6854 25.8621 82.8225 26 82.8567C26.0345 82.891 26.1035 82.891 26.138 82.891C28.1724 82.9253 28.7242 83.0966 32.138 85.1871C33.3793 88.0316 34.6897 91.3558 35.8966 94.9543C33.3449 93.4121 30.9656 92.6239 28.6897 92.5553C28.4828 92.5553 28.3449 92.6924 28.3104 92.898C28.3104 93.0351 28.3793 93.1722 28.5173 93.2407C28.5518 93.275 28.6207 93.275 28.6552 93.275C30.9656 93.3778 33.3793 94.2346 36.0345 95.8796C36.1035 95.9138 36.138 95.9138 36.2069 95.9481C37.2414 99.1353 38.138 102.528 38.7931 105.955C36.2069 104.413 33.8621 103.625 31.5518 103.522C31.3449 103.522 31.2069 103.659 31.1725 103.865C31.1725 104.002 31.2414 104.139 31.3793 104.207C31.4138 104.242 31.4828 104.242 31.5173 104.242C33.8276 104.344 36.2414 105.201 38.8966 106.846C38.9311 106.846 38.9311 106.88 38.9656 106.88C39.5518 110.205 39.8966 113.563 39.8621 116.819C39.8621 116.956 39.9311 117.093 40.069 117.127C40.1035 117.162 40.1725 117.162 40.2069 117.162C40.4483 117.127 40.5862 116.99 40.5862 116.785Z" fill="#F2F2F2"/>
<path d="M10 88.7512C13.5862 104.653 21.2069 114.249 28.2069 119.938H42.8621C41.1034 88.7512 10 88.7512 10 88.7512Z" fill="url(#paint0_linear)"/>
<path d="M16.7241 93.7891C18.3448 94.8515 19.8965 95.9824 21.4138 97.1819C22.8965 98.3813 24.3448 99.6836 25.7241 101.02C28.4483 103.728 30.8965 106.709 32.9655 109.931C35 113.083 36.6896 116.442 38.0689 119.938H38.8276C38.8276 119.903 38.8276 119.903 38.7931 119.869C37.3103 116.305 35.4827 112.878 33.3448 109.656C31.1724 106.435 28.6896 103.488 25.8965 100.815C24.4827 99.478 23.0345 98.2442 21.4827 97.0448C19.9655 95.9138 18.3793 94.8172 16.7241 93.7891Z" fill="#4A48A8"/>
<path d="M61.2758 96.9077C58.5861 108.765 52.8965 115.928 47.6896 120.177H36.7585C38.0689 96.9077 61.2758 96.9077 61.2758 96.9077Z" fill="url(#paint1_linear)"/>
<path d="M56.2413 100.677C55.0344 101.466 53.862 102.322 52.7585 103.214C51.6551 104.105 50.5516 105.064 49.5516 106.058C47.5172 108.08 45.6896 110.308 44.1723 112.706C42.6551 115.071 41.4137 117.573 40.3448 120.177H39.7585C39.7585 120.177 39.7585 120.143 39.793 120.143C40.8965 117.504 42.2413 114.934 43.862 112.535C45.4827 110.136 47.3448 107.943 49.4137 105.955C50.4482 104.961 51.5516 104.036 52.6896 103.145C53.862 102.254 55.0344 101.466 56.2413 100.677Z" fill="#4A48A8"/>
<path d="M68.6206 118.395C68.6206 118.395 68.9654 120.829 69.793 120.966C70.5861 121.103 75.6896 120.315 75.7585 119.698C75.8275 119.081 75.3792 118.978 72.3103 118.67C70.4827 118.464 70.6206 118.018 70.6206 118.018L68.6206 118.395Z" fill="#4F002F"/>
<path d="M68.6895 75.3172L58.4481 73.9121C58.4481 73.9121 55.2757 77.6819 60.7584 83.4736C66.5171 89.5738 67.7584 96.6335 67.7584 96.6335L68.6205 118.772L70.8619 118.224C70.8619 118.224 71.5171 102.734 72.4481 97.456C73.3446 92.1784 72.7239 79.4297 68.6895 75.3172Z" fill="url(#paint2_linear)"/>
<path d="M52.1724 116.648C52.1724 116.648 51.5862 119.012 52.2414 119.458C52.8965 119.869 57.7586 121 58.069 120.486C58.3793 119.938 58 119.698 55.3793 118.293C53.7931 117.436 54.1034 117.059 54.1034 117.059L52.1724 116.648Z" fill="#4F002F"/>
<path d="M68.4482 74.7346L59.4827 71.9929C59.4827 71.9929 55.2758 74.2891 57.9999 81.623C60.8965 89.3339 59.4482 96.2908 59.4482 96.2908L52.0344 116.956L54.2413 117.299C54.2413 117.299 60.5517 103.282 63.3103 98.7583C66.1034 94.2346 70.5517 79.978 68.4482 74.7346Z" fill="url(#paint3_linear)"/>
<path d="M72.793 64.2135C72.793 64.2135 76.4826 59.8612 76.8964 57.6678C77.3102 55.4745 76.5171 54.1037 76.655 53.8295C76.9309 53.3155 78.1033 54.7206 78.1033 55.4402C78.1033 55.5088 78.1723 55.5431 78.2067 55.4745C78.4826 55.0975 79.1033 54.2408 79.2067 53.7953C79.3102 53.3155 80.2757 53.8295 79.9998 55.1318C79.8964 55.5431 79.6895 55.92 79.3792 56.2285C79.1033 56.5026 78.6895 56.9481 78.4136 57.565C77.9654 58.6274 75.8964 65.2074 72.655 65.8585L72.793 64.2135Z" fill="#F8B590"/>
<path d="M73.3792 63.391L72.724 65.9613C72.724 65.9613 66.3792 60.1695 65.4827 58.3532L68.3792 56.4683C68.8275 56.2969 69.4137 56.7767 69.5516 56.9481C70.6206 58.2846 71.6551 61.1976 73.3792 63.391Z" fill="url(#paint4_linear)"/>
<path d="M57.0688 74.5976C57.0688 74.5976 61.793 65.7557 58.9654 60.2039C58.9654 60.2039 58.1378 56.0571 60.8275 56.2628C62.4482 56.3656 65.9309 56.3313 68.3792 56.2628C70.793 56.1942 70.2068 60.1011 70.2068 60.1011C70.2068 60.1011 73.0344 62.5686 69.7585 64.6934C66.2068 66.9895 69.2068 75.5914 69.2068 75.5914L57.0688 74.5976Z" fill="url(#paint5_linear)"/>
<path d="M65.2759 66.2697C65.2759 66.2697 68.4828 72.6441 70.7932 74.2205C73.138 75.7627 74.3794 77.0307 74.1035 77.2363C73.8966 77.4077 73.1725 76.9622 72.7587 76.688C72.6897 76.6537 72.6208 76.7223 72.6553 76.7908C72.9656 77.3049 73.6553 78.4358 74.069 78.7785C74.5518 79.1555 73.4828 79.978 72.138 79.0184C71.6897 78.71 71.3794 78.2645 71.207 77.7504C71.0346 77.3049 70.7242 76.6195 70.138 76.0026C69.138 74.9402 62.5863 69.3198 63.4139 65.2759L65.2759 66.2697Z" fill="#F8B590"/>
<path d="M65.8965 66.9895L63.5172 68.2918C63.5172 68.2918 60.7931 62.123 59.5517 58.6617C59.1379 57.5308 59.8621 56.297 61.069 56.0914C62.0689 55.9201 63 56.5369 63.2758 57.4965C63.9655 60.0325 65.3103 64.7962 65.8965 66.9895Z" fill="url(#paint6_linear)"/>
<path d="M65.4482 57.3937C65.8619 56.9482 65.9999 56.0914 66.0344 55.5431C66.0344 55.406 66.0344 55.3032 66.0344 55.2346C66.0344 55.0633 66.0344 54.9948 66.0344 54.9948L64.7585 55.1318C64.7585 55.1318 64.724 55.2689 64.6895 55.4403C64.5861 55.783 64.4137 56.3313 64.1378 56.6397C64.1033 56.674 64.0688 56.7083 64.0343 56.7426C63.655 57.051 64.793 58.1134 65.4482 57.3937Z" fill="#F8B590"/>
<path opacity="0.5" d="M64.1721 56.6397C64.31 56.7083 64.5169 56.7083 64.7583 56.674C65.379 56.5027 65.8273 55.9886 66.0687 55.5774C66.0687 55.4403 66.0687 55.3375 66.0687 55.2689C65.5514 55.4403 65.1031 55.4745 64.7238 55.4745C64.6204 55.7487 64.448 56.3313 64.1721 56.6397Z" fill="#BA9C95"/>
<path d="M63.3102 55.029C63.3102 55.029 63.3792 55.0633 63.5171 55.1318C63.8964 55.3375 64.8275 55.6459 66.2413 55.1661C66.3102 55.1318 66.3792 55.1318 66.4482 55.0976C68.4482 54.3093 68.1378 52.4587 67.9999 50.7109C67.8964 48.9631 65.655 47.4895 63.7585 49.6828C61.8275 51.8419 63.3102 55.029 63.3102 55.029Z" fill="#F8B590"/>
<path d="M68.1724 51.3962C67.5862 52.0816 66.5862 52.0473 65.7241 52.2872C65.6206 52.3215 65.4827 52.3558 65.4137 52.4586C65.3448 52.5614 65.3448 52.6985 65.3448 52.8356C65.4137 53.7266 65.3448 54.7204 64.7241 55.3716C64.5517 55.5429 64.3793 55.68 64.2758 55.8514C64.1379 56.1255 64.1379 56.4683 64.1034 56.7767C64.0344 57.1194 63.931 57.4621 63.7241 57.7705C63.4137 58.2846 63.1379 59.2442 62.5517 59.347C62.2068 59.4155 61.4137 59.5526 61.0689 59.5183C60.7586 59.4841 59.931 59.0043 59.6551 58.8329C59.4137 58.6616 59.2758 57.9076 59.2068 57.5992C58.862 55.8171 60.5517 54.7204 61.1379 52.9726C61.4827 51.9788 61.5862 50.4023 62.4482 49.7512C63.3793 49.0658 64 48.6203 65.1379 48.5175C65.6551 48.4832 66.1379 48.4832 66.6551 48.6203C67.1034 48.7573 67.5517 48.963 67.8965 49.2714C68.2069 49.5456 68.4827 49.8883 68.5172 50.2995C68.5862 50.7108 68.4137 51.0878 68.1724 51.3962Z" fill="#B1337D"/>
<path d="M78.2068 56.9823L77.6896 56.8795C77.1723 56.7767 76.793 56.2969 76.8965 55.7829L77.3792 52.8356C77.4827 52.3215 77.9654 51.9446 78.4827 52.0474L78.9999 52.1502C79.5172 52.253 79.8965 52.7328 79.793 53.2468L79.3103 56.1941C79.2413 56.7424 78.7585 57.0852 78.2068 56.9823Z" fill="#2F393C"/>
<path d="M79.7097 52.5139L77.7363 52.1909L77.0359 56.4178L79.0093 56.7408L79.7097 52.5139Z" fill="white"/>
<path d="M78.0688 56.7767C78.0688 56.8453 77.9998 56.8795 77.9308 56.8795C77.8619 56.8795 77.8274 56.811 77.8274 56.7425C77.8274 56.6739 77.8964 56.6396 77.9653 56.6396C78.0343 56.6396 78.0688 56.7082 78.0688 56.7767Z" fill="#1A1A1A"/>
<path d="M94.6206 8.9692L91.9309 14.2126L105.517 5.02808L94.6206 8.9692Z" fill="#808080"/>
<path d="M89.9653 4L95.0688 9.89455L105.896 4.85677L89.9653 4Z" fill="#CBD6EA"/>
<path d="M99.4826 16.6802L105.896 4.85681L95.0688 9.8946L99.4826 16.6802Z" fill="#FEFFFF"/>
<path d="M90.8966 14.8638L90.8276 14.6924C90.9656 14.6239 91.0345 14.6239 91.0345 14.6239L91.1035 14.7953C91.1035 14.7953 91.0345 14.8295 90.8966 14.8638Z" fill="white"/>
<path d="M76.2414 49.9569C76.1379 49.8541 76.069 49.7513 75.9655 49.6142L76.1035 49.5114C76.2069 49.6142 76.2759 49.7513 76.3793 49.8541L76.2414 49.9569ZM75.7241 49.3058C75.6552 49.203 75.5517 49.0659 75.4828 48.9631L75.6207 48.8603C75.6897 48.9631 75.7931 49.1002 75.8621 49.203L75.7241 49.3058ZM75.2069 48.5861C75.1379 48.4833 75.0345 48.3462 74.9655 48.2434L75.1035 48.1406C75.1724 48.2434 75.2759 48.3805 75.3448 48.4833L75.2069 48.5861ZM74.7241 47.9007C74.6552 47.7979 74.5517 47.6608 74.4828 47.5237L74.6207 47.4209C74.6897 47.558 74.7931 47.6608 74.8621 47.7636L74.7241 47.9007ZM74.2414 47.1468C74.1724 47.0097 74.1035 46.9069 74.0345 46.7698L74.1724 46.667C74.2414 46.804 74.3104 46.9069 74.3793 47.0439L74.2414 47.1468ZM73.8276 46.4271C73.7586 46.29 73.6897 46.1872 73.6207 46.0501L73.7931 45.9473C73.8621 46.0844 73.931 46.1872 74 46.3243L73.8276 46.4271ZM73.4138 45.6731C73.3448 45.536 73.2759 45.4332 73.2069 45.2961L73.3793 45.2276C73.4483 45.3647 73.5172 45.4675 73.5862 45.6046L73.4138 45.6731ZM73 44.8849C72.931 44.7478 72.8621 44.6107 72.8276 44.5079L73 44.4394C73.069 44.5765 73.1379 44.7135 73.1724 44.8163L73 44.8849ZM72.6552 44.1309C72.5862 43.9939 72.5517 43.8568 72.4828 43.7197L72.6552 43.6511C72.7241 43.7882 72.7586 43.9253 72.8276 44.0281L72.6552 44.1309ZM72.3104 43.3084C72.2414 43.1714 72.2069 43.0343 72.1724 42.8972L72.3448 42.8287C72.3793 42.9657 72.4483 43.1028 72.4828 43.2399L72.3104 43.3084ZM72 42.5202C71.9655 42.3831 71.8966 42.246 71.8621 42.109L72.0345 42.0404C72.069 42.1775 72.1379 42.3146 72.1724 42.4517L72 42.5202ZM71.7586 41.6977C71.7241 41.5606 71.6897 41.4236 71.6552 41.2865L71.8276 41.2522C71.8621 41.3893 71.8966 41.5264 71.931 41.6635L71.7586 41.6977ZM71.5172 40.8752C71.4828 40.7381 71.4483 40.6011 71.4138 40.464L71.5862 40.4297C71.6207 40.5668 71.6552 40.7039 71.6897 40.841L71.5172 40.8752ZM71.5172 39.9842L71.3448 40.0185C71.3104 39.8814 71.3104 39.7443 71.2759 39.6072L71.4483 39.5729C71.4828 39.71 71.5172 39.8471 71.5172 39.9842ZM71.4138 39.1274L71.2414 39.1617C71.2414 39.0246 71.2069 38.8875 71.2069 38.7162H71.3793C71.3793 38.8533 71.3793 38.9903 71.4138 39.1274ZM71.3448 38.3049H71.1724C71.1724 38.1678 71.1724 38.0308 71.1724 37.8594H71.3448C71.3104 37.9965 71.3104 38.1678 71.3448 38.3049ZM71.3104 37.4482H71.1379C71.1379 37.3111 71.1379 37.174 71.1379 37.0026H71.3104C71.3104 37.174 71.3104 37.3111 71.3104 37.4482ZM71.3793 36.5914H71.2069C71.2069 36.4543 71.2414 36.3172 71.2414 36.1459L71.4138 36.1801C71.3793 36.3172 71.3793 36.4543 71.3793 36.5914ZM71.4828 35.7689L71.3104 35.7346C71.3448 35.5975 71.3793 35.4605 71.3793 35.3234L71.5517 35.3576C71.5172 35.4605 71.5172 35.5975 71.4828 35.7689ZM84.4483 32.9587L84.4138 32.7874C84.5517 32.7531 84.6552 32.7188 84.7931 32.6503L84.8966 32.7874C84.7586 32.8902 84.6207 32.9244 84.4483 32.9587ZM84 32.9587C83.8621 32.9587 83.7241 32.9244 83.5517 32.8559L83.5862 32.6845C83.7241 32.7188 83.8621 32.7531 84 32.7531V32.9587ZM85.2414 32.5132L85.1035 32.4104C85.1724 32.3076 85.2414 32.2048 85.3104 32.0677L85.4828 32.1362C85.3793 32.239 85.3104 32.3761 85.2414 32.5132ZM71.6552 34.9121L71.4828 34.8779C71.5172 34.7408 71.5517 34.6037 71.5862 34.4666L71.7586 34.5352C71.7241 34.638 71.6897 34.775 71.6552 34.9121ZM83.1379 32.7188C83 32.6503 82.8966 32.5817 82.7586 32.5132L82.8621 32.3418C83 32.4104 83.1035 32.4789 83.2414 32.5475L83.1379 32.7188ZM82.3793 32.3076C82.2759 32.239 82.1379 32.1362 82.0345 32.0677L82.1379 31.9306C82.2414 32.0334 82.3793 32.1019 82.4828 32.1705L82.3793 32.3076ZM85.5862 31.6907L85.4138 31.6564C85.4483 31.5193 85.4483 31.3823 85.4483 31.2452H85.6207C85.6207 31.3823 85.6207 31.5536 85.5862 31.6907ZM71.8966 34.1239L71.7241 34.0554C71.7586 33.9183 71.8276 33.7812 71.8621 33.6441L72.0345 33.7127C72 33.8497 71.9655 33.9868 71.8966 34.1239ZM81.6897 31.7935C81.5862 31.6907 81.4828 31.6222 81.3448 31.5193L81.4483 31.3823C81.5517 31.4851 81.6552 31.5879 81.7586 31.6564L81.6897 31.7935ZM72.2069 33.3357L72.0345 33.2671C72.1035 33.1301 72.1724 32.993 72.2069 32.8902L72.3793 32.9587C72.3448 33.0615 72.2759 33.1986 72.2069 33.3357ZM85.6207 30.7997H85.4483C85.4483 30.6626 85.4138 30.5255 85.3793 30.3884L85.5517 30.3541C85.5862 30.5255 85.6207 30.6626 85.6207 30.7997ZM81.0345 31.2109C80.931 31.1081 80.8276 31.0053 80.7241 30.9025L80.8621 30.7654C80.9655 30.8682 81.069 30.971 81.1724 31.0738L81.0345 31.2109ZM72.6207 32.5817L72.4483 32.4789C72.5173 32.3418 72.5862 32.239 72.6552 32.1019L72.7931 32.2048C72.7586 32.3076 72.6897 32.4446 72.6207 32.5817ZM85.2759 29.9772C85.2414 29.8401 85.2069 29.703 85.1379 29.5659L85.3104 29.4974C85.3793 29.6345 85.4138 29.7715 85.4483 29.9086L85.2759 29.9772ZM80.4483 30.594C80.3448 30.4912 80.2414 30.3884 80.1724 30.2856L80.3104 30.1828C80.4138 30.2856 80.4828 30.3884 80.5862 30.4912L80.4483 30.594ZM73.0345 31.8278L72.8966 31.725C72.9655 31.6221 73.069 31.4851 73.1379 31.3823L73.2759 31.4851C73.2069 31.6221 73.1379 31.725 73.0345 31.8278ZM85 29.2232C84.931 29.0861 84.8621 28.9833 84.7931 28.8462L84.931 28.7434C85 28.8805 85.069 28.9833 85.1379 29.1204L85 29.2232ZM73.5517 31.1424L73.4138 31.0395C73.5172 30.9367 73.5862 30.7997 73.6897 30.6968L73.8276 30.7997C73.7241 30.9367 73.6207 31.0395 73.5517 31.1424ZM79.8621 29.9429C79.7586 29.8401 79.6897 29.703 79.6207 29.6002L79.7586 29.4974C79.8276 29.6002 79.931 29.7373 80 29.8401L79.8621 29.9429ZM74.1035 30.4912L73.9655 30.3884C74.069 30.2856 74.1724 30.1828 74.2759 30.08L74.4138 30.2171C74.2759 30.2856 74.1724 30.3884 74.1035 30.4912ZM84.5517 28.4692C84.4828 28.3664 84.3793 28.2294 84.3104 28.1265L84.4483 28.0237C84.5517 28.1265 84.6207 28.2636 84.7241 28.3664L84.5517 28.4692ZM79.3793 29.2232C79.3104 29.0861 79.2414 28.9833 79.1724 28.8462L79.3448 28.7777C79.4138 28.9148 79.4828 29.0176 79.5517 29.1547L79.3793 29.2232ZM74.6897 29.8743L74.5517 29.7373C74.6552 29.6345 74.7586 29.5316 74.8621 29.4288L75 29.5659C74.8966 29.6687 74.7931 29.7715 74.6897 29.8743ZM84.0345 27.8524C83.931 27.7496 83.8276 27.6468 83.7241 27.5782L83.8276 27.4411C83.931 27.5439 84.0345 27.6468 84.1379 27.7496L84.0345 27.8524ZM75.3104 29.2917L75.2069 29.1547C75.3104 29.0519 75.4138 28.9833 75.5517 28.8805L75.6552 29.0176C75.5172 29.1204 75.4138 29.2232 75.3104 29.2917ZM78.9655 28.4692C78.8966 28.3322 78.8621 28.1951 78.7931 28.058L78.9655 27.9895C79 28.1265 79.069 28.2636 79.1379 28.3664L78.9655 28.4692ZM75.9655 28.7777L75.8621 28.6406C75.9655 28.5378 76.1035 28.4692 76.2069 28.3664L76.3104 28.5035C76.2069 28.5721 76.069 28.6749 75.9655 28.7777ZM83.3793 27.304C83.2759 27.2355 83.1379 27.167 83 27.0984L83.069 26.9271C83.2069 26.9956 83.3104 27.0642 83.4483 27.1327L83.3793 27.304ZM76.6552 28.2636L76.5517 28.1265C76.6552 28.058 76.7931 27.9552 76.8966 27.8866L77 28.0237C76.8966 28.0923 76.7931 28.1608 76.6552 28.2636ZM82.6207 26.9271C82.4828 26.8928 82.3448 26.8243 82.2069 26.79L82.2414 26.6186C82.3793 26.6529 82.5172 26.7214 82.6552 26.7557L82.6207 26.9271ZM78.6897 27.6468C78.6552 27.5097 78.6207 27.3726 78.5862 27.2698V27.2355L78.7586 27.2012V27.2355C78.7931 27.3726 78.7931 27.4754 78.8276 27.6125L78.6897 27.6468ZM77.3793 27.7838L77.2759 27.6468C77.4138 27.5782 77.5172 27.5097 77.6552 27.4411L77.7586 27.6125C77.6207 27.6468 77.4828 27.7153 77.3793 27.7838ZM78.1379 27.3726L78.069 27.2012C78.2069 27.1327 78.3448 27.0642 78.4483 27.0299L78.5172 27.2012C78.3793 27.2698 78.2414 27.3383 78.1379 27.3726ZM81.8276 26.6872C81.6897 26.6529 81.5517 26.6529 81.4138 26.6186V26.4473C81.5517 26.4473 81.6897 26.4816 81.8621 26.5158L81.8276 26.6872ZM78.8966 27.0642L78.8276 26.8928C78.9655 26.8243 79.1035 26.79 79.2414 26.7557L79.3104 26.9271C79.1724 26.9613 79.0345 26.9956 78.8966 27.0642ZM80.9655 26.6186C80.8276 26.6186 80.6897 26.6186 80.5517 26.6529V26.4816C80.6897 26.4816 80.8621 26.4473 81 26.4473L80.9655 26.6186ZM79.7241 26.79L79.6897 26.6186C79.8276 26.5844 79.9655 26.5501 80.1035 26.5158L80.1379 26.6872C80 26.7214 79.8621 26.7557 79.7241 26.79ZM78.7241 26.7557H78.5517C78.5517 26.6186 78.5172 26.4816 78.5172 26.3102H78.6897C78.6897 26.4816 78.6897 26.6186 78.7241 26.7557ZM78.6897 25.9332H78.5172C78.5172 25.7961 78.5517 25.6591 78.5862 25.4877L78.7586 25.522C78.7241 25.6591 78.7241 25.7961 78.6897 25.9332ZM78.8276 25.1107L78.6552 25.0765C78.6897 24.9394 78.7241 24.8023 78.7586 24.6652L78.931 24.7337C78.8966 24.8366 78.8621 24.9736 78.8276 25.1107ZM79.1035 24.2882L78.931 24.2197C79 24.0826 79.0345 23.9455 79.1035 23.8084L79.2759 23.877C79.2069 24.0483 79.1379 24.1854 79.1035 24.2882ZM79.4483 23.5343L79.2759 23.4657C79.3448 23.3287 79.4138 23.2258 79.4828 23.0888L79.6207 23.1916C79.5862 23.2944 79.5172 23.3972 79.4483 23.5343ZM79.8966 22.8146L79.7586 22.7118C79.8276 22.609 79.931 22.4719 80 22.3691L80.1379 22.4719C80.069 22.5747 79.9655 22.6775 79.8966 22.8146ZM80.4138 22.1292L80.2759 22.0264C80.3793 21.9236 80.4483 21.7865 80.5517 21.6837L80.6897 21.7865C80.5862 21.8893 80.4828 22.0264 80.4138 22.1292ZM80.9655 21.478L80.8276 21.3752C80.931 21.2724 81.0345 21.1696 81.1379 21.0668L81.2759 21.2039C81.1379 21.2724 81.0345 21.3752 80.9655 21.478ZM81.5517 20.8612L81.4138 20.7241C81.5173 20.6213 81.6207 20.5185 81.7241 20.4156L81.8621 20.5527C81.7586 20.6555 81.6552 20.7584 81.5517 20.8612ZM82.1724 20.2786L82.069 20.1415C82.1724 20.0387 82.2759 19.9359 82.3793 19.8673L82.4828 20.0044C82.3793 20.0729 82.2759 20.1758 82.1724 20.2786ZM82.8276 19.696L82.7241 19.5589C82.8276 19.4561 82.931 19.3875 83.069 19.2847L83.1724 19.4218C83.0345 19.5246 82.931 19.6274 82.8276 19.696ZM83.4828 19.1819L83.3793 19.0448C83.4828 18.942 83.6207 18.8735 83.7241 18.7707L83.8276 18.9077C83.7241 19.0105 83.5862 19.0791 83.4828 19.1819ZM84.1724 18.6678L84.069 18.5308C84.1724 18.4622 84.3104 18.3594 84.4138 18.2909L84.5173 18.4279C84.4138 18.4965 84.2759 18.5993 84.1724 18.6678ZM84.8966 18.1881L84.7931 18.051C84.8966 17.9824 85.0345 17.8796 85.1379 17.8111L85.2414 17.9482C85.1035 18.0167 85 18.0852 84.8966 18.1881ZM85.5862 17.7083L85.4828 17.5712C85.6207 17.5026 85.7241 17.3998 85.8621 17.3313L85.9655 17.4684C85.8276 17.5369 85.7241 17.6397 85.5862 17.7083ZM86.3448 17.2627L86.2414 17.1257C86.3793 17.0571 86.4828 16.9886 86.6207 16.92L86.7241 17.0571C86.5862 17.0914 86.4483 17.1942 86.3448 17.2627ZM87.069 16.8172L86.9655 16.6459C87.1035 16.5773 87.2069 16.5088 87.3448 16.4403L87.4483 16.6116C87.3104 16.6801 87.2069 16.7487 87.069 16.8172ZM87.8276 16.406L87.7241 16.2346C87.8621 16.1661 87.9655 16.0975 88.1035 16.029L88.1724 16.2004C88.069 16.2689 87.931 16.3374 87.8276 16.406ZM88.5862 15.9947L88.5173 15.8234C88.6552 15.7548 88.7931 15.6863 88.8966 15.6178L88.9655 15.7891C88.8276 15.8577 88.7241 15.9262 88.5862 15.9947ZM89.3448 15.6178L89.2759 15.4464C89.4138 15.3779 89.5517 15.3093 89.6552 15.2408L89.7241 15.4121C89.6207 15.4807 89.4828 15.5492 89.3448 15.6178ZM90.1035 15.2408L90.0345 15.0694C90.1724 15.0009 90.3104 14.9323 90.4138 14.8981L90.4828 15.0694C90.3793 15.1037 90.2414 15.1722 90.1035 15.2408Z" fill="white"/>
<path d="M76.655 50.4709C76.655 50.4709 76.6205 50.4024 76.5171 50.2996L76.655 50.1968C76.7585 50.2996 76.793 50.3681 76.793 50.3681L76.655 50.4709Z" fill="white"/>
</g>
<defs>
<linearGradient id="paint0_linear" x1="16.139" y1="120.894" x2="28.0332" y2="101.531" gradientUnits="userSpaceOnUse">
<stop stop-color="#4C48BE"/>
<stop offset="1" stop-color="#6A67EA"/>
</linearGradient>
<linearGradient id="paint1_linear" x1="40.5269" y1="123.475" x2="51.4781" y2="102.781" gradientUnits="userSpaceOnUse">
<stop stop-color="#4C48BE"/>
<stop offset="1" stop-color="#6A67EA"/>
</linearGradient>
<linearGradient id="paint2_linear" x1="74.3824" y1="94.8957" x2="67.4055" y2="95.8317" gradientUnits="userSpaceOnUse">
<stop stop-color="#5C5D91"/>
<stop offset="1" stop-color="#22234F"/>
</linearGradient>
<linearGradient id="paint3_linear" x1="70.0309" y1="96.5996" x2="58.0048" y2="94.7945" gradientUnits="userSpaceOnUse">
<stop stop-color="#5C5D91"/>
<stop offset="1" stop-color="#22234F"/>
</linearGradient>
<linearGradient id="paint4_linear" x1="65.8715" y1="64.7943" x2="71.3702" y2="60.3181" gradientUnits="userSpaceOnUse">
<stop stop-color="#4743B6"/>
<stop offset="1" stop-color="#7B78F7"/>
</linearGradient>
<linearGradient id="paint5_linear" x1="68.0119" y1="74.1327" x2="59.7665" y2="58.931" gradientUnits="userSpaceOnUse">
<stop stop-color="#4743B6"/>
<stop offset="1" stop-color="#7B78F7"/>
</linearGradient>
<linearGradient id="paint6_linear" x1="59.3534" y1="63.5129" x2="64.1377" y2="61.2953" gradientUnits="userSpaceOnUse">
<stop stop-color="#4743B6"/>
<stop offset="1" stop-color="#7B78F7"/>
</linearGradient>
<clipPath id="clip0">
<rect width="144" height="25.8197" fill="white" transform="translate(144 126) rotate(-180)"/>
</clipPath>
<clipPath id="clip1">
<rect width="106" height="120.836" fill="white" transform="translate(10)"/>
</clipPath>
</defs>
</svg>
