<svg width="708" height="80" viewBox="0 0 708 80" fill="none" xmlns="http://www.w3.org/2000/svg">
<g opacity="0.3">
<path opacity="0.2" d="M469.678 37.6179H472.04L472.02 80H354V45.6377L362.97 33.2506V17.6476L369.201 6.23325V43.3747H370.154V33.2506H371.702V10.5806L376.266 10.6799L375.949 30.7692H377.12V16.1787H378.707V10.6799H384.343V16.7146H386.308V45.1414L390.833 36.1886L396.171 46.7891V37.6179H400.795V0L405.042 8.43672V29.5385H407.562V24.7543L410.619 18.6998L413.933 25.2705V37.3002H416.235V10.5806L421.256 10.6799V33.2506H424.927L424.987 17.6675L430.027 26.1241L429.868 39.5236H432.687V26.1241L436.477 33.2506V17.6476L442.708 6.23325V43.3747H443.661V33.2506H445.209V10.5806L449.773 10.6799L449.456 30.7692H450.627V16.1787H452.214V10.6799H457.85V16.7146H459.815V45.1414L464.34 36.1886L469.678 46.7891V37.6179Z" fill="#5465AD"/>
<path opacity="0.2" d="M708 37.6179L707.98 80H472.099L472.079 37.6179H474.441V46.7891L479.779 36.1886L484.304 45.1414V16.7146H486.269V10.6799H491.885V16.1787H493.492V30.7692H494.663L494.346 10.6799L498.91 10.5806V33.2506H500.458V43.3747H501.411V6.23325L507.642 17.6476V33.2506L511.433 26.1241V39.5236H514.251L514.092 26.1241L519.133 17.6675L519.192 33.2506H522.863V10.6799L527.884 10.5806V37.3002H530.186V25.2705L533.501 18.6998L536.557 24.7543V29.5385H539.077V8.43672L543.324 0V37.6179H547.928V46.7891L553.286 36.1886L557.811 45.1414V16.7146H559.776V10.6799H565.392V16.1787H566.999V30.7692H568.17L567.853 10.6799L572.417 10.5806V33.2506H573.965V43.3747H574.918V6.23325L581.149 17.6476V33.2506L590.04 45.5186L598.93 33.2506V17.6476L605.162 6.23325V43.3747H606.114V33.2506H607.662V10.5806L612.227 10.6799L611.909 30.7692H613.08V16.1787H614.668V10.6799H620.304V16.7146H622.268V45.1414L626.793 36.1886L632.132 46.7891V37.6179H636.755V0L641.002 8.43672V29.5385H643.523V24.7543L646.579 18.6998L649.893 25.2705V37.3002H652.195V10.5806L657.216 10.6799V33.2506H660.887L660.947 17.6675L665.988 26.1241L665.829 39.5236H668.647V26.1241L672.437 33.2506V17.6476L678.669 6.23325V43.3747H679.621V33.2506H681.169V10.5806L685.734 10.6799L685.416 30.7692H686.587V16.1787H688.175V10.6799H693.811V16.7146H695.775V45.1414L700.3 36.1886L705.638 46.7891V37.6179H708Z" fill="#5465AD"/>
</g>
<g opacity="0.8">
<path opacity="0.2" d="M115.678 37.6179H118.04L118.02 80H0V45.6377L8.97006 33.2506V17.6476L15.2015 6.23325V43.3747H16.1541V33.2506H17.702V10.5806L22.2664 10.6799L21.9489 30.7692H23.1197V16.1787H24.7074V10.6799H30.3434V16.7146H32.3081V45.1414L36.8328 36.1886L42.1712 46.7891V37.6179H46.7952V0L51.042 8.43672V29.5385H53.5624V24.7543L56.6186 18.6998L59.9327 25.2705V37.3002H62.2348V10.5806L67.2556 10.6799V33.2506H70.927L70.9865 17.6675L76.0272 26.1241L75.8685 39.5236H78.6865V26.1241L82.477 33.2506V17.6476L88.7084 6.23325V43.3747H89.6609V33.2506H91.2089V10.5806L95.7733 10.6799L95.4558 30.7692H96.6266V16.1787H98.2143V10.6799H103.85V16.7146H105.815V45.1414L110.34 36.1886L115.678 46.7891V37.6179Z" fill="#26D07C"/>
<path opacity="0.2" d="M233.678 37.6179H236.04L236.02 80H118V45.6377L126.97 33.2506V17.6476L133.201 6.23325V43.3747H134.154V33.2506H135.702V10.5806L140.266 10.6799L139.949 30.7692H141.12V16.1787H142.707V10.6799H148.343V16.7146H150.308V45.1414L154.833 36.1886L160.171 46.7891V37.6179H164.795V0L169.042 8.43672V29.5385H171.562V24.7543L174.619 18.6998L177.933 25.2705V37.3002H180.235V10.5806L185.256 10.6799V33.2506H188.927L188.987 17.6675L194.027 26.1241L193.868 39.5236H196.687V26.1241L200.477 33.2506V17.6476L206.708 6.23325V43.3747H207.661V33.2506H209.209V10.5806L213.773 10.6799L213.456 30.7692H214.627V16.1787H216.214V10.6799H221.85V16.7146H223.815V45.1414L228.34 36.1886L233.678 46.7891V37.6179Z" fill="#26D07C"/>
<path opacity="0.2" d="M351.678 37.6179H354.04L354.02 80H236V45.6377L244.97 33.2506V17.6476L251.201 6.23325V43.3747H252.154V33.2506H253.702V10.5806L258.266 10.6799L257.949 30.7692H259.12V16.1787H260.707V10.6799H266.343V16.7146H268.308V45.1414L272.833 36.1886L278.171 46.7891V37.6179H282.795V0L287.042 8.43672V29.5385H289.562V24.7543L292.619 18.6998L295.933 25.2705V37.3002H298.235V10.5806L303.256 10.6799V33.2506H306.927L306.987 17.6675L312.027 26.1241L311.868 39.5236H314.687V26.1241L318.477 33.2506V17.6476L324.708 6.23325V43.3747H325.661V33.2506H327.209V10.5806L331.773 10.6799L331.456 30.7692H332.627V16.1787H334.214V10.6799H339.85V16.7146H341.815V45.1414L346.34 36.1886L351.678 46.7891V37.6179Z" fill="#26D07C"/>
</g>
</svg>
