<svg width="708" height="80" viewBox="0 0 708 80" fill="none" xmlns="http://www.w3.org/2000/svg">
<g opacity="0.3">
<path opacity="0.2" d="M469.678 37.6179H472.04L472.02 80H354V45.6377L362.97 33.2506V17.6476L369.201 6.23325V43.3747H370.154V33.2506H371.702V10.5806L376.266 10.6799L375.949 30.7692H377.12V16.1787H378.707V10.6799H384.343V16.7146H386.308V45.1414L390.833 36.1886L396.171 46.7891V37.6179H400.795V0L405.042 8.43672V29.5385H407.562V24.7543L410.619 18.6998L413.933 25.2705V37.3002H416.235V10.5806L421.256 10.6799V33.2506H424.927L424.987 17.6675L430.027 26.1241L429.868 39.5236H432.687V26.1241L436.477 33.2506V17.6476L442.708 6.23325V43.3747H443.661V33.2506H445.209V10.5806L449.773 10.6799L449.456 30.7692H450.627V16.1787H452.214V10.6799H457.85V16.7146H459.815V45.1414L464.34 36.1886L469.678 46.7891V37.6179Z" fill="#5465AD"/>
<path opacity="0.2" d="M708 37.6179L707.98 80H472.099L472.079 37.6179H474.441V46.7891L479.779 36.1886L484.304 45.1414V16.7146H486.269V10.6799H491.885V16.1787H493.492V30.7692H494.663L494.346 10.6799L498.91 10.5806V33.2506H500.458V43.3747H501.411V6.23325L507.642 17.6476V33.2506L511.433 26.1241V39.5236H514.251L514.092 26.1241L519.132 17.6675L519.192 33.2506H522.863V10.6799L527.884 10.5806V37.3002H530.186V25.2705L533.5 18.6998L536.557 24.7543V29.5385H539.077V8.43672L543.324 0V37.6179H547.928V46.7891L553.286 36.1886L557.811 45.1414V16.7146H559.776V10.6799H565.392V16.1787H566.999V30.7692H568.17L567.853 10.6799L572.417 10.5806V33.2506H573.965V43.3747H574.918V6.23325L581.149 17.6476V33.2506L590.04 45.5186L598.93 33.2506V17.6476L605.162 6.23325V43.3747H606.114V33.2506H607.662V10.5806L612.227 10.6799L611.909 30.7692H613.08V16.1787H614.668V10.6799H620.304V16.7146H622.268V45.1414L626.793 36.1886L632.131 46.7891V37.6179H636.755V0L641.002 8.43672V29.5385H643.523V24.7543L646.579 18.6998L649.893 25.2705V37.3002H652.195V10.5806L657.216 10.6799V33.2506H660.887L660.947 17.6675L665.988 26.1241L665.829 39.5236H668.647V26.1241L672.437 33.2506V17.6476L678.669 6.23325V43.3747H679.621V33.2506H681.169V10.5806L685.734 10.6799L685.416 30.7692H686.587V16.1787H688.175V10.6799H693.811V16.7146H695.775V45.1414L700.3 36.1886L705.638 46.7891V37.6179H708Z" fill="#5465AD"/>
</g>
<g opacity="0.3">
<path opacity="0.2" d="M115.678 37.6179H118.04L118.02 80H0V45.6377L8.97006 33.2506V17.6476L15.2015 6.23325V43.3747H16.1541V33.2506H17.702V10.5806L22.2664 10.6799L21.9489 30.7692H23.1197V16.1787H24.7074V10.6799H30.3434V16.7146H32.3081V45.1414L36.8328 36.1886L42.1712 46.7891V37.6179H46.7952V0L51.042 8.43672V29.5385H53.5624V24.7543L56.6186 18.6998L59.9327 25.2705V37.3002H62.2348V10.5806L67.2556 10.6799V33.2506H70.927L70.9865 17.6675L76.0272 26.1241L75.8685 39.5236H78.6865V26.1241L82.477 33.2506V17.6476L88.7084 6.23325V43.3747H89.6609V33.2506H91.2089V10.5806L95.7733 10.6799L95.4558 30.7692H96.6266V16.1787H98.2143V10.6799H103.85V16.7146H105.815V45.1414L110.34 36.1886L115.678 46.7891V37.6179Z" fill="#5465AD"/>
<path opacity="0.2" d="M354 37.6179L353.98 80H118.099L118.079 37.6179H120.441V46.7891L125.779 36.1886L130.304 45.1414V16.7146H132.269V10.6799H137.885V16.1787H139.492V30.7692H140.663L140.346 10.6799L144.91 10.5806V33.2506H146.458V43.3747H147.411V6.23325L153.642 17.6476V33.2506L157.433 26.1241V39.5236H160.251L160.092 26.1241L165.132 17.6675L165.192 33.2506H168.863V10.6799L173.884 10.5806V37.3002H176.186V25.2705L179.5 18.6998L182.557 24.7543V29.5385H185.077V8.43672L189.324 0V37.6179H193.928V46.7891L199.286 36.1886L203.811 45.1414V16.7146H205.776V10.6799H211.392V16.1787H212.999V30.7692H214.17L213.853 10.6799L218.417 10.5806V33.2506H219.965V43.3747H220.918V6.23325L227.149 17.6476V33.2506L236.04 45.5186L244.93 33.2506V17.6476L251.162 6.23325V43.3747H252.114V33.2506H253.662V10.5806L258.227 10.6799L257.909 30.7692H259.08V16.1787H260.668V10.6799H266.304V16.7146H268.268V45.1414L272.793 36.1886L278.131 46.7891V37.6179H282.755V0L287.002 8.43672V29.5385H289.523V24.7543L292.579 18.6998L295.893 25.2705V37.3002H298.195V10.5806L303.216 10.6799V33.2506H306.887L306.947 17.6675L311.988 26.1241L311.829 39.5236H314.647V26.1241L318.437 33.2506V17.6476L324.669 6.23325V43.3747H325.621V33.2506H327.169V10.5806L331.734 10.6799L331.416 30.7692H332.587V16.1787H334.175V10.6799H339.811V16.7146H341.775V45.1414L346.3 36.1886L351.638 46.7891V37.6179H354Z" fill="#5465AD"/>
</g>
</svg>
